<svg width="160" height="62" viewBox="0 0 160 62" fill="none" xmlns="http://www.w3.org/2000/svg">
<path d="M62.33 53.21C62.49 52.95 62.72 52.74 63.02 52.58C63.32 52.42 63.6633 52.34 64.05 52.34C64.51 52.34 64.9267 52.4567 65.3 52.69C65.6733 52.9233 65.9667 53.2567 66.18 53.69C66.4 54.1233 66.51 54.6267 66.51 55.2C66.51 55.7733 66.4 56.28 66.18 56.72C65.9667 57.1533 65.6733 57.49 65.3 57.73C64.9267 57.9633 64.51 58.08 64.05 58.08C63.6567 58.08 63.3133 58.0033 63.02 57.85C62.7267 57.69 62.4967 57.48 62.33 57.22V58H60.62V50.6H62.33V53.21ZM64.77 55.2C64.77 54.7733 64.65 54.44 64.41 54.2C64.1767 53.9533 63.8867 53.83 63.54 53.83C63.2 53.83 62.91 53.9533 62.67 54.2C62.4367 54.4467 62.32 54.7833 62.32 55.21C62.32 55.6367 62.4367 55.9733 62.67 56.22C62.91 56.4667 63.2 56.59 63.54 56.59C63.88 56.59 64.17 56.4667 64.41 56.22C64.65 55.9667 64.77 55.6267 64.77 55.2ZM69.9471 58.08C69.4004 58.08 68.9071 57.9633 68.4671 57.73C68.0338 57.4967 67.6904 57.1633 67.4371 56.73C67.1904 56.2967 67.0671 55.79 67.0671 55.21C67.0671 54.6367 67.1938 54.1333 67.4471 53.7C67.7004 53.26 68.0471 52.9233 68.4871 52.69C68.9271 52.4567 69.4204 52.34 69.9671 52.34C70.5138 52.34 71.0071 52.4567 71.4471 52.69C71.8871 52.9233 72.2338 53.26 72.4871 53.7C72.7404 54.1333 72.8671 54.6367 72.8671 55.21C72.8671 55.7833 72.7371 56.29 72.4771 56.73C72.2238 57.1633 71.8738 57.4967 71.4271 57.73C70.9871 57.9633 70.4938 58.08 69.9471 58.08ZM69.9471 56.6C70.2738 56.6 70.5504 56.48 70.7771 56.24C71.0104 56 71.1271 55.6567 71.1271 55.21C71.1271 54.7633 71.0138 54.42 70.7871 54.18C70.5671 53.94 70.2938 53.82 69.9671 53.82C69.6338 53.82 69.3571 53.94 69.1371 54.18C68.9171 54.4133 68.8071 54.7567 68.8071 55.21C68.8071 55.6567 68.9138 56 69.1271 56.24C69.3471 56.48 69.6204 56.6 69.9471 56.6ZM77.1843 58L75.4843 55.66V58H73.7743V50.6H75.4843V54.69L77.1743 52.42H79.2843L76.9643 55.22L79.3043 58H77.1843ZM85.2159 55.12C85.2159 55.28 85.2059 55.4467 85.1859 55.62H81.3159C81.3426 55.9667 81.4526 56.2333 81.6459 56.42C81.8459 56.6 82.0893 56.69 82.3759 56.69C82.8026 56.69 83.0993 56.51 83.2659 56.15H85.0859C84.9926 56.5167 84.8226 56.8467 84.5759 57.14C84.3359 57.4333 84.0326 57.6633 83.6659 57.83C83.2993 57.9967 82.8893 58.08 82.4359 58.08C81.8893 58.08 81.4026 57.9633 80.9759 57.73C80.5493 57.4967 80.2159 57.1633 79.9759 56.73C79.7359 56.2967 79.6159 55.79 79.6159 55.21C79.6159 54.63 79.7326 54.1233 79.9659 53.69C80.2059 53.2567 80.5393 52.9233 80.9659 52.69C81.3926 52.4567 81.8826 52.34 82.4359 52.34C82.9759 52.34 83.4559 52.4533 83.8759 52.68C84.2959 52.9067 84.6226 53.23 84.8559 53.65C85.0959 54.07 85.2159 54.56 85.2159 55.12ZM83.4659 54.67C83.4659 54.3767 83.3659 54.1433 83.1659 53.97C82.9659 53.7967 82.7159 53.71 82.4159 53.71C82.1293 53.71 81.8859 53.7933 81.6859 53.96C81.4926 54.1267 81.3726 54.3633 81.3259 54.67H83.4659ZM89.228 56.55V58H88.358C87.738 58 87.2547 57.85 86.908 57.55C86.5614 57.2433 86.388 56.7467 86.388 56.06V53.84H85.708V52.42H86.388V51.06H88.098V52.42H89.218V53.84H88.098V56.08C88.098 56.2467 88.138 56.3667 88.218 56.44C88.298 56.5133 88.4314 56.55 88.618 56.55H89.228ZM93.2905 56.55V58H92.4205C91.8005 58 91.3172 57.85 90.9705 57.55C90.6239 57.2433 90.4505 56.7467 90.4505 56.06V53.84H89.7705V52.42H90.4505V51.06H92.1605V52.42H93.2805V53.84H92.1605V56.08C92.1605 56.2467 92.2005 56.3667 92.2805 56.44C92.3605 56.5133 92.4939 56.55 92.6805 56.55H93.2905ZM96.783 58.08C96.2364 58.08 95.743 57.9633 95.303 57.73C94.8697 57.4967 94.5264 57.1633 94.273 56.73C94.0264 56.2967 93.903 55.79 93.903 55.21C93.903 54.6367 94.0297 54.1333 94.283 53.7C94.5364 53.26 94.883 52.9233 95.323 52.69C95.763 52.4567 96.2564 52.34 96.803 52.34C97.3497 52.34 97.843 52.4567 98.283 52.69C98.723 52.9233 99.0697 53.26 99.323 53.7C99.5764 54.1333 99.703 54.6367 99.703 55.21C99.703 55.7833 99.573 56.29 99.313 56.73C99.0597 57.1633 98.7097 57.4967 98.263 57.73C97.823 57.9633 97.3297 58.08 96.783 58.08ZM96.783 56.6C97.1097 56.6 97.3864 56.48 97.613 56.24C97.8464 56 97.963 55.6567 97.963 55.21C97.963 54.7633 97.8497 54.42 97.623 54.18C97.403 53.94 97.1297 53.82 96.803 53.82C96.4697 53.82 96.193 53.94 95.973 54.18C95.753 54.4133 95.643 54.7567 95.643 55.21C95.643 55.6567 95.7497 56 95.963 56.24C96.183 56.48 96.4564 56.6 96.783 56.6Z" fill="black"/>
<path d="M30.6 11.68L27.44 12.96C28.52 14.52 29.6 16.64 30.44 18.28L33.64 16.92C32.88 15.44 31.6 13.12 30.6 11.68ZM35.8 10.52L32.64 11.84C33.72 13.32 34.88 15.4 35.72 17.08L38.92 15.72C38.2 14.32 36.84 12.04 35.8 10.52ZM23.04 12.44H17.12C17.24 13.16 17.44 14.88 17.44 15.92C17.44 18.36 17.44 22.64 17.44 24.04C17.44 25.92 17.44 38.56 17.4 40.08C17.36 41.12 17 41.48 15.96 41.48C14.96 41.48 13.2 41.36 11.52 41.04L12 46C14 46.24 16.36 46.32 18.48 46.32C21.32 46.32 22.68 44.88 22.68 42.56C22.68 39.2 22.68 27.28 22.68 24.04C22.68 21.72 22.68 18.32 22.68 15.96C22.68 14.96 22.92 13 23.04 12.44ZM3.44 18.84V24.12C4.56 24 6.08 23.96 7.28 23.96C9.92 23.96 29.16 23.96 32.04 23.96C33.12 23.96 34.68 24 35.92 24.12V18.88C34.84 19 33.12 19.12 32 19.12C29.12 19.12 9.72 19.12 7.28 19.12C6.04 19.12 4.64 19 3.44 18.84ZM13.64 29.68L9.08 27.52C7.44 30.92 4.24 35.32 1.56 37.88L5.92 40.8C8.08 38.44 11.8 33.2 13.64 29.68ZM30.8 27.4L26.44 29.76C28.4 32.24 31.24 37.08 32.96 40.52L37.64 37.92C36.04 35 32.84 29.96 30.8 27.4ZM57.92 12.68L51.76 11.48C51.68 12.72 51.36 14.24 50.92 15.56C50.44 17.08 49.68 19.2 48.6 21.04C47.08 23.56 44.52 27.16 41.64 29.28L46.68 32.32C49.32 29.96 52.04 26.12 53.64 22.96C54.68 20.92 55.92 17.96 56.6 15.96C56.96 15.08 57.48 13.72 57.92 12.68ZM51.6 18.88L51.2 23.92C54.8 23.92 69.96 23.92 72.76 23.92C73.68 23.92 75.4 23.92 76.92 24.04V18.6C75.6 18.8 73.76 18.88 72.76 18.88C70 18.88 54.8 18.88 51.6 18.88ZM67.24 21.76H61.68C61.52 31.4 57.96 36.92 53.4 40.4C52.48 41.2 51.08 42 49.64 42.6L55.04 46.2C62.76 41.36 66.96 33.56 67.24 21.76ZM100.16 20.28L95.44 21.84C96.4 23.92 98.16 28.76 98.68 30.68L103.44 29.04C102.88 27.2 100.92 21.96 100.16 20.28ZM114.92 23.16L109.32 21.36C108.88 26.4 106.92 31.72 104.2 35.08C100.92 39.24 95.32 42.28 90.96 43.48L95.16 47.76C99.84 45.96 104.8 42.64 108.52 37.8C111.24 34.32 112.96 30.16 114 26.12C114.24 25.32 114.48 24.48 114.92 23.16ZM90.88 22.36L86.08 24.12C87.04 25.84 89.08 31.2 89.72 33.32L94.6 31.52C93.84 29.28 91.88 24.4 90.88 22.36ZM132.52 40.2C132.52 41.76 132.4 44.2 132.12 45.76H138.4C138.2 44.12 138.04 41.32 138.04 40.2C138.04 37.24 138 21.6 138 17.2C138 15.52 138.2 13.8 138.36 12.36H132.12C132.4 13.8 132.52 15.76 132.52 17.2C132.52 20.56 132.52 37.12 132.52 40.2ZM136.84 22.72V28.48C141.2 29.92 147.92 32.48 152.48 34.84L154.72 29.28C150.8 27.36 142.16 24.2 136.84 22.72Z" fill="black"/>
</svg>
