<svg width="157" height="63" viewBox="0 0 157 63" fill="none" xmlns="http://www.w3.org/2000/svg">
<path d="M7.32047 28.84C7.96047 27.8 8.88047 26.96 10.0805 26.32C11.2805 25.68 12.6538 25.36 14.2005 25.36C16.0405 25.36 17.7071 25.8267 19.2005 26.76C20.6938 27.6934 21.8671 29.0267 22.7205 30.76C23.6005 32.4934 24.0405 34.5067 24.0405 36.8C24.0405 39.0934 23.6005 41.12 22.7205 42.88C21.8671 44.6134 20.6938 45.96 19.2005 46.92C17.7071 47.8534 16.0405 48.32 14.2005 48.32C12.6271 48.32 11.2538 48.0134 10.0805 47.4C8.90714 46.76 7.98714 45.92 7.32047 44.88V48H0.480469V18.4H7.32047V28.84ZM17.0805 36.8C17.0805 35.0934 16.6005 33.76 15.6405 32.8C14.7071 31.8134 13.5471 31.32 12.1605 31.32C10.8005 31.32 9.64047 31.8134 8.68047 32.8C7.74714 33.7867 7.28047 35.1334 7.28047 36.84C7.28047 38.5467 7.74714 39.8934 8.68047 40.88C9.64047 41.8667 10.8005 42.36 12.1605 42.36C13.5205 42.36 14.6805 41.8667 15.6405 40.88C16.6005 39.8667 17.0805 38.5067 17.0805 36.8Z" fill="white"/>
<path d="M37.7889 48.32C35.6022 48.32 33.6289 47.8534 31.8689 46.92C30.1356 45.9867 28.7622 44.6534 27.7489 42.92C26.7622 41.1867 26.2689 39.16 26.2689 36.84C26.2689 34.5467 26.7756 32.5334 27.7889 30.8C28.8022 29.04 30.1889 27.6934 31.9489 26.76C33.7089 25.8267 35.6822 25.36 37.8689 25.36C40.0556 25.36 42.0289 25.8267 43.7889 26.76C45.5489 27.6934 46.9356 29.04 47.9489 30.8C48.9622 32.5334 49.4689 34.5467 49.4689 36.84C49.4689 39.1334 48.9489 41.16 47.9089 42.92C46.8956 44.6534 45.4956 45.9867 43.7089 46.92C41.9489 47.8534 39.9756 48.32 37.7889 48.32ZM37.7889 42.4C39.0956 42.4 40.2022 41.92 41.1089 40.96C42.0422 40 42.5089 38.6267 42.5089 36.84C42.5089 35.0534 42.0556 33.68 41.1489 32.72C40.2689 31.76 39.1756 31.28 37.8689 31.28C36.5356 31.28 35.4289 31.76 34.5489 32.72C33.6689 33.6534 33.2289 35.0267 33.2289 36.84C33.2289 38.6267 33.6556 40 34.5089 40.96C35.3889 41.92 36.4822 42.4 37.7889 42.4Z" fill="white"/>
<path d="M66.7377 48L59.9377 38.64V48H53.0977V18.4H59.9377V34.76L66.6977 25.68H75.1377L65.8577 36.88L75.2177 48H66.7377Z" fill="white"/>
<path d="M98.8642 36.48C98.8642 37.12 98.8242 37.7867 98.7442 38.48H83.2642C83.3709 39.8667 83.8109 40.9334 84.5842 41.68C85.3842 42.4 86.3576 42.76 87.5042 42.76C89.2109 42.76 90.3976 42.04 91.0642 40.6H98.3442C97.9709 42.0667 97.2909 43.3867 96.3042 44.56C95.3442 45.7334 94.1309 46.6534 92.6642 47.32C91.1976 47.9867 89.5576 48.32 87.7442 48.32C85.5576 48.32 83.6109 47.8534 81.9042 46.92C80.1976 45.9867 78.8642 44.6534 77.9042 42.92C76.9442 41.1867 76.4642 39.16 76.4642 36.84C76.4642 34.52 76.9309 32.4934 77.8642 30.76C78.8242 29.0267 80.1576 27.6934 81.8642 26.76C83.5709 25.8267 85.5309 25.36 87.7442 25.36C89.9042 25.36 91.8242 25.8134 93.5042 26.72C95.1842 27.6267 96.4909 28.92 97.4242 30.6C98.3842 32.28 98.8642 34.24 98.8642 36.48ZM91.8642 34.68C91.8642 33.5067 91.4642 32.5734 90.6642 31.88C89.8642 31.1867 88.8642 30.84 87.6642 30.84C86.5176 30.84 85.5442 31.1734 84.7442 31.84C83.9709 32.5067 83.4909 33.4534 83.3042 34.68H91.8642Z" fill="white"/>
<path d="M114.913 42.2V48H111.433C108.953 48 107.019 47.4 105.633 46.2C104.246 44.9734 103.553 42.9867 103.553 40.24V31.36H100.833V25.68H103.553V20.24H110.393V25.68H114.873V31.36H110.393V40.32C110.393 40.9867 110.553 41.4667 110.873 41.76C111.193 42.0534 111.726 42.2 112.473 42.2H114.913Z" fill="white"/>
<path d="M131.163 42.2V48H127.683C125.203 48 123.269 47.4 121.883 46.2C120.496 44.9734 119.803 42.9867 119.803 40.24V31.36H117.083V25.68H119.803V20.24H126.643V25.68H131.123V31.36H126.643V40.32C126.643 40.9867 126.803 41.4667 127.123 41.76C127.443 42.0534 127.976 42.2 128.723 42.2H131.163Z" fill="white"/>
<path d="M145.133 48.32C142.946 48.32 140.973 47.8534 139.213 46.92C137.479 45.9867 136.106 44.6534 135.093 42.92C134.106 41.1867 133.613 39.16 133.613 36.84C133.613 34.5467 134.119 32.5334 135.133 30.8C136.146 29.04 137.533 27.6934 139.293 26.76C141.053 25.8267 143.026 25.36 145.213 25.36C147.399 25.36 149.373 25.8267 151.133 26.76C152.893 27.6934 154.279 29.04 155.293 30.8C156.306 32.5334 156.813 34.5467 156.813 36.84C156.813 39.1334 156.293 41.16 155.253 42.92C154.239 44.6534 152.839 45.9867 151.053 46.92C149.293 47.8534 147.319 48.32 145.133 48.32ZM145.133 42.4C146.439 42.4 147.546 41.92 148.453 40.96C149.386 40 149.853 38.6267 149.853 36.84C149.853 35.0534 149.399 33.68 148.493 32.72C147.613 31.76 146.519 31.28 145.213 31.28C143.879 31.28 142.773 31.76 141.893 32.72C141.013 33.6534 140.573 35.0267 140.573 36.84C140.573 38.6267 140.999 40 141.853 40.96C142.733 41.92 143.826 42.4 145.133 42.4Z" fill="white"/>
<path d="M65.6505 53.92L64.8605 54.24C65.1305 54.63 65.4005 55.16 65.6105 55.57L66.4105 55.23C66.2205 54.86 65.9005 54.28 65.6505 53.92ZM66.9505 53.63L66.1605 53.96C66.4305 54.33 66.7205 54.85 66.9305 55.27L67.7305 54.93C67.5505 54.58 67.2105 54.01 66.9505 53.63ZM63.7605 54.11H62.2805C62.3105 54.29 62.3605 54.72 62.3605 54.98C62.3605 55.59 62.3605 56.66 62.3605 57.01C62.3605 57.48 62.3605 60.64 62.3505 61.02C62.3405 61.28 62.2505 61.37 61.9905 61.37C61.7405 61.37 61.3005 61.34 60.8805 61.26L61.0005 62.5C61.5005 62.56 62.0905 62.58 62.6205 62.58C63.3305 62.58 63.6705 62.22 63.6705 61.64C63.6705 60.8 63.6705 57.82 63.6705 57.01C63.6705 56.43 63.6705 55.58 63.6705 54.99C63.6705 54.74 63.7305 54.25 63.7605 54.11ZM58.8605 55.71V57.03C59.1405 57 59.5205 56.99 59.8205 56.99C60.4805 56.99 65.2905 56.99 66.0105 56.99C66.2805 56.99 66.6705 57 66.9805 57.03V55.72C66.7105 55.75 66.2805 55.78 66.0005 55.78C65.2805 55.78 60.4305 55.78 59.8205 55.78C59.5105 55.78 59.1605 55.75 58.8605 55.71ZM61.4105 58.42L60.2705 57.88C59.8605 58.73 59.0605 59.83 58.3905 60.47L59.4805 61.2C60.0205 60.61 60.9505 59.3 61.4105 58.42ZM65.7005 57.85L64.6105 58.44C65.1005 59.06 65.8105 60.27 66.2405 61.13L67.4105 60.48C67.0105 59.75 66.2105 58.49 65.7005 57.85Z" fill="white"/>
<path d="M72.4805 54.17L70.9405 53.87C70.9205 54.18 70.8405 54.56 70.7305 54.89C70.6105 55.27 70.4205 55.8 70.1505 56.26C69.7705 56.89 69.1305 57.79 68.4105 58.32L69.6705 59.08C70.3305 58.49 71.0105 57.53 71.4105 56.74C71.6705 56.23 71.9805 55.49 72.1505 54.99C72.2405 54.77 72.3705 54.43 72.4805 54.17ZM70.9005 55.72L70.8005 56.98C71.7005 56.98 75.4905 56.98 76.1905 56.98C76.4205 56.98 76.8505 56.98 77.2305 57.01V55.65C76.9005 55.7 76.4405 55.72 76.1905 55.72C75.5005 55.72 71.7005 55.72 70.9005 55.72ZM74.8105 56.44H73.4205C73.3805 58.85 72.4905 60.23 71.3505 61.1C71.1205 61.3 70.7705 61.5 70.4105 61.65L71.7605 62.55C73.6905 61.34 74.7405 59.39 74.8105 56.44Z" fill="white"/>
<path d="M83.0405 56.07L81.8605 56.46C82.1005 56.98 82.5405 58.19 82.6705 58.67L83.8605 58.26C83.7205 57.8 83.2305 56.49 83.0405 56.07ZM86.7305 56.79L85.3305 56.34C85.2205 57.6 84.7305 58.93 84.0505 59.77C83.2305 60.81 81.8305 61.57 80.7405 61.87L81.7905 62.94C82.9605 62.49 84.2005 61.66 85.1305 60.45C85.8105 59.58 86.2405 58.54 86.5005 57.53C86.5605 57.33 86.6205 57.12 86.7305 56.79ZM80.7205 56.59L79.5205 57.03C79.7605 57.46 80.2705 58.8 80.4305 59.33L81.6505 58.88C81.4605 58.32 80.9705 57.1 80.7205 56.59Z" fill="white"/>
<path d="M91.1305 61.05C91.1305 61.44 91.1005 62.05 91.0305 62.44H92.6005C92.5505 62.03 92.5105 61.33 92.5105 61.05C92.5105 60.31 92.5005 56.4 92.5005 55.3C92.5005 54.88 92.5505 54.45 92.5905 54.09H91.0305C91.1005 54.45 91.1305 54.94 91.1305 55.3C91.1305 56.14 91.1305 60.28 91.1305 61.05ZM92.2105 56.68V58.12C93.3005 58.48 94.9805 59.12 96.1205 59.71L96.6805 58.32C95.7005 57.84 93.5405 57.05 92.2105 56.68Z" fill="white"/>
<path d="M8.192 7.252C8.448 6.94 8.772 6.688 9.164 6.496C9.556 6.304 9.984 6.208 10.448 6.208C11.168 6.208 11.748 6.444 12.188 6.916C12.636 7.38 12.86 8.016 12.86 8.824C12.86 9.08 12.836 9.352 12.788 9.64C12.668 10.328 12.432 10.936 12.08 11.464C11.728 11.984 11.304 12.388 10.808 12.676C10.312 12.956 9.788 13.096 9.236 13.096C8.764 13.096 8.368 13.004 8.048 12.82C7.728 12.628 7.496 12.376 7.352 12.064L7.184 13H5.132L6.704 4.12H8.756L8.192 7.252ZM10.712 9.64C10.736 9.504 10.748 9.38 10.748 9.268C10.748 8.868 10.632 8.556 10.4 8.332C10.176 8.108 9.888 7.996 9.536 7.996C9.128 7.996 8.756 8.144 8.42 8.44C8.084 8.736 7.868 9.14 7.772 9.652C7.748 9.796 7.736 9.928 7.736 10.048C7.736 10.44 7.848 10.748 8.072 10.972C8.296 11.196 8.584 11.308 8.936 11.308C9.344 11.308 9.716 11.16 10.052 10.864C10.396 10.56 10.616 10.152 10.712 9.64ZM17.4525 6.208C18.3165 6.208 19.0005 6.444 19.5045 6.916C20.0165 7.38 20.2725 8.016 20.2725 8.824C20.2725 9.088 20.2525 9.324 20.2125 9.532C20.1805 9.716 20.1325 9.912 20.0685 10.12H15.4245C15.4165 10.168 15.4125 10.244 15.4125 10.348C15.4125 10.7 15.5085 10.968 15.7005 11.152C15.8925 11.336 16.1485 11.428 16.4685 11.428C16.9805 11.428 17.3725 11.212 17.6445 10.78H19.8285C19.5405 11.46 19.0725 12.016 18.4245 12.448C17.7765 12.88 17.0485 13.096 16.2405 13.096C15.3765 13.096 14.6845 12.856 14.1645 12.376C13.6525 11.896 13.3965 11.244 13.3965 10.42C13.3965 10.172 13.4205 9.916 13.4685 9.652C13.5885 8.956 13.8365 8.348 14.2125 7.828C14.5885 7.308 15.0565 6.908 15.6165 6.628C16.1765 6.348 16.7885 6.208 17.4525 6.208ZM18.1965 9.076C18.2125 8.964 18.2205 8.888 18.2205 8.848C18.2205 8.528 18.1205 8.284 17.9205 8.116C17.7205 7.94 17.4565 7.852 17.1285 7.852C16.7765 7.852 16.4645 7.96 16.1925 8.176C15.9285 8.384 15.7365 8.684 15.6165 9.076H18.1965ZM23.4551 10.696C23.4471 10.736 23.4431 10.788 23.4431 10.852C23.4431 10.996 23.4831 11.1 23.5631 11.164C23.6511 11.228 23.7911 11.26 23.9831 11.26H24.7151L24.4031 13H23.3591C22.0151 13 21.3431 12.436 21.3431 11.308C21.3431 11.14 21.3631 10.928 21.4031 10.672L21.8831 8.008H21.0671L21.3671 6.304H22.1831L22.4711 4.672H24.5231L24.2351 6.304H25.5791L25.2791 8.008H23.9351L23.4551 10.696ZM25.7381 9.64C25.8581 8.952 26.0941 8.348 26.4461 7.828C26.7981 7.308 27.2221 6.908 27.7181 6.628C28.2141 6.348 28.7381 6.208 29.2901 6.208C29.7621 6.208 30.1581 6.304 30.4781 6.496C30.7981 6.688 31.0301 6.94 31.1741 7.252L31.3421 6.304H33.3941L32.2061 13H30.1541L30.3341 12.052C30.0781 12.364 29.7541 12.616 29.3621 12.808C28.9701 13 28.5381 13.096 28.0661 13.096C27.5941 13.096 27.1741 12.988 26.8061 12.772C26.4461 12.556 26.1661 12.252 25.9661 11.86C25.7661 11.46 25.6661 10.992 25.6661 10.456C25.6661 10.2 25.6901 9.928 25.7381 9.64ZM30.7541 9.652C30.7781 9.508 30.7901 9.376 30.7901 9.256C30.7901 8.864 30.6741 8.556 30.4421 8.332C30.2181 8.108 29.9301 7.996 29.5781 7.996C29.1701 7.996 28.7981 8.144 28.4621 8.44C28.1261 8.728 27.9141 9.128 27.8261 9.64C27.8021 9.784 27.7901 9.916 27.7901 10.036C27.7901 10.428 27.9021 10.74 28.1261 10.972C28.3581 11.196 28.6461 11.308 28.9901 11.308C29.3981 11.308 29.7701 11.16 30.1061 10.864C30.4421 10.568 30.6581 10.164 30.7541 9.652Z" fill="#FA4365"/>
</svg>
