<svg width="24" height="24" viewBox="0 0 24 24" fill="none" xmlns="http://www.w3.org/2000/svg">
<g clip-path="url(#clip0_334_2)">
<path d="M16.8884 8.58225L14.8022 9.02253L16.2312 10.605L16.0053 12.725L17.9518 11.855L19.8983 12.725L19.6724 10.605L21.1013 9.02253L19.0152 8.58225L17.9518 6.73425L16.8884 8.58225Z" fill="white"/>
<path d="M23.2087 17.1786L21.842 16.8901L21.1453 15.6793L20.4487 16.8901L19.082 17.1786L20.0181 18.2153L19.8702 19.6041L21.1454 19.0342L22.4208 19.6041L22.2726 18.2152L23.2087 17.1786Z" fill="white"/>
<path d="M11.4987 12C11.4987 7.29669 14.205 3.22613 18.1449 1.25855C16.5331 0.453626 14.7151 0 12.791 0C6.16359 0 0.791016 5.37257 0.791016 12C0.791016 18.6274 6.16359 24 12.791 24C14.7151 24 16.5331 23.5464 18.1449 22.7415C14.205 20.7739 11.4987 16.7033 11.4987 12Z" fill="white"/>
</g>
<defs>
<clipPath id="clip0_334_2">
<rect width="24" height="24" fill="white"/>
</clipPath>
</defs>
</svg>
