<svg width="18" height="18" viewBox="0 0 18 18" fill="none" xmlns="http://www.w3.org/2000/svg">
<g clip-path="url(#clip0_143_966)">
<path d="M9 18C13.9706 18 18 13.9706 18 9C18 4.02944 13.9706 0 9 0C4.02944 0 0 4.02944 0 9C0 13.9706 4.02944 18 9 18Z" fill="black"/>
<path d="M10.5217 5.02173C8.87467 5.02173 7.53451 6.36188 7.53451 8.00896C7.53451 9.6504 8.87467 10.9863 10.5217 10.9863C12.1641 10.9863 13.5 9.6504 13.5 8.00896C13.5 6.36188 12.1641 5.02173 10.5217 5.02173ZM5.20312 12.9783H6.66211V5.02173H5.20312" fill="white"/>
</g>
<defs>
<clipPath id="clip0_143_966">
<rect width="18" height="18" fill="white"/>
</clipPath>
</defs>
</svg>
