<svg width="160" height="62" viewBox="0 0 160 62" fill="none" xmlns="http://www.w3.org/2000/svg">
<path d="M9.32 24.84C9.96 23.8 10.88 22.96 12.08 22.32C13.28 21.68 14.6533 21.36 16.2 21.36C18.04 21.36 19.7067 21.8267 21.2 22.76C22.6933 23.6933 23.8667 25.0267 24.72 26.76C25.6 28.4933 26.04 30.5067 26.04 32.8C26.04 35.0933 25.6 37.12 24.72 38.88C23.8667 40.6133 22.6933 41.96 21.2 42.92C19.7067 43.8533 18.04 44.32 16.2 44.32C14.6267 44.32 13.2533 44.0133 12.08 43.4C10.9067 42.76 9.98667 41.92 9.32 40.88V44H2.48V14.4H9.32V24.84ZM19.08 32.8C19.08 31.0933 18.6 29.76 17.64 28.8C16.7067 27.8133 15.5467 27.32 14.16 27.32C12.8 27.32 11.64 27.8133 10.68 28.8C9.74667 29.7867 9.28 31.1333 9.28 32.84C9.28 34.5467 9.74667 35.8933 10.68 36.88C11.64 37.8667 12.8 38.36 14.16 38.36C15.52 38.36 16.68 37.8667 17.64 36.88C18.6 35.8667 19.08 34.5067 19.08 32.8ZM39.7884 44.32C37.6018 44.32 35.6284 43.8533 33.8684 42.92C32.1351 41.9867 30.7618 40.6533 29.7484 38.92C28.7618 37.1867 28.2684 35.16 28.2684 32.84C28.2684 30.5467 28.7751 28.5333 29.7884 26.8C30.8018 25.04 32.1884 23.6933 33.9484 22.76C35.7084 21.8267 37.6818 21.36 39.8684 21.36C42.0551 21.36 44.0284 21.8267 45.7884 22.76C47.5484 23.6933 48.9351 25.04 49.9484 26.8C50.9618 28.5333 51.4684 30.5467 51.4684 32.84C51.4684 35.1333 50.9484 37.16 49.9084 38.92C48.8951 40.6533 47.4951 41.9867 45.7084 42.92C43.9484 43.8533 41.9751 44.32 39.7884 44.32ZM39.7884 38.4C41.0951 38.4 42.2018 37.92 43.1084 36.96C44.0418 36 44.5084 34.6267 44.5084 32.84C44.5084 31.0533 44.0551 29.68 43.1484 28.72C42.2684 27.76 41.1751 27.28 39.8684 27.28C38.5351 27.28 37.4284 27.76 36.5484 28.72C35.6684 29.6533 35.2284 31.0267 35.2284 32.84C35.2284 34.6267 35.6551 36 36.5084 36.96C37.3884 37.92 38.4818 38.4 39.7884 38.4ZM68.7372 44L61.9372 34.64V44H55.0972V14.4H61.9372V30.76L68.6972 21.68H77.1372L67.8572 32.88L77.2172 44H68.7372ZM100.864 32.48C100.864 33.12 100.824 33.7867 100.744 34.48H85.2638C85.3704 35.8667 85.8104 36.9333 86.5838 37.68C87.3838 38.4 88.3571 38.76 89.5038 38.76C91.2104 38.76 92.3971 38.04 93.0638 36.6H100.344C99.9704 38.0667 99.2904 39.3867 98.3038 40.56C97.3438 41.7333 96.1304 42.6533 94.6638 43.32C93.1971 43.9867 91.5571 44.32 89.7438 44.32C87.5571 44.32 85.6104 43.8533 83.9038 42.92C82.1971 41.9867 80.8638 40.6533 79.9038 38.92C78.9438 37.1867 78.4638 35.16 78.4638 32.84C78.4638 30.52 78.9304 28.4933 79.8638 26.76C80.8238 25.0267 82.1571 23.6933 83.8638 22.76C85.5704 21.8267 87.5304 21.36 89.7438 21.36C91.9038 21.36 93.8238 21.8133 95.5038 22.72C97.1838 23.6267 98.4904 24.92 99.4238 26.6C100.384 28.28 100.864 30.24 100.864 32.48ZM93.8638 30.68C93.8638 29.5067 93.4638 28.5733 92.6638 27.88C91.8638 27.1867 90.8638 26.84 89.6638 26.84C88.5171 26.84 87.5438 27.1733 86.7438 27.84C85.9704 28.5067 85.4904 29.4533 85.3038 30.68H93.8638ZM116.912 38.2V44H113.432C110.952 44 109.019 43.4 107.632 42.2C106.246 40.9733 105.552 38.9867 105.552 36.24V27.36H102.832V21.68H105.552V16.24H112.392V21.68H116.872V27.36H112.392V36.32C112.392 36.9867 112.552 37.4667 112.872 37.76C113.192 38.0533 113.726 38.2 114.472 38.2H116.912ZM133.162 38.2V44H129.682C127.202 44 125.269 43.4 123.882 42.2C122.496 40.9733 121.802 38.9867 121.802 36.24V27.36H119.082V21.68H121.802V16.24H128.642V21.68H133.122V27.36H128.642V36.32C128.642 36.9867 128.802 37.4667 129.122 37.76C129.442 38.0533 129.976 38.2 130.722 38.2H133.162ZM147.132 44.32C144.946 44.32 142.972 43.8533 141.212 42.92C139.479 41.9867 138.106 40.6533 137.092 38.92C136.106 37.1867 135.612 35.16 135.612 32.84C135.612 30.5467 136.119 28.5333 137.132 26.8C138.146 25.04 139.532 23.6933 141.292 22.76C143.052 21.8267 145.026 21.36 147.212 21.36C149.399 21.36 151.372 21.8267 153.132 22.76C154.892 23.6933 156.279 25.04 157.292 26.8C158.306 28.5333 158.812 30.5467 158.812 32.84C158.812 35.1333 158.292 37.16 157.252 38.92C156.239 40.6533 154.839 41.9867 153.052 42.92C151.292 43.8533 149.319 44.32 147.132 44.32ZM147.132 38.4C148.439 38.4 149.546 37.92 150.452 36.96C151.386 36 151.852 34.6267 151.852 32.84C151.852 31.0533 151.399 29.68 150.492 28.72C149.612 27.76 148.519 27.28 147.212 27.28C145.879 27.28 144.772 27.76 143.892 28.72C143.012 29.6533 142.572 31.0267 142.572 32.84C142.572 34.6267 142.999 36 143.852 36.96C144.732 37.92 145.826 38.4 147.132 38.4Z" fill="black"/>
<path d="M67.65 49.92L66.86 50.24C67.13 50.63 67.4 51.16 67.61 51.57L68.41 51.23C68.22 50.86 67.9 50.28 67.65 49.92ZM68.95 49.63L68.16 49.96C68.43 50.33 68.72 50.85 68.93 51.27L69.73 50.93C69.55 50.58 69.21 50.01 68.95 49.63ZM65.76 50.11H64.28C64.31 50.29 64.36 50.72 64.36 50.98C64.36 51.59 64.36 52.66 64.36 53.01C64.36 53.48 64.36 56.64 64.35 57.02C64.34 57.28 64.25 57.37 63.99 57.37C63.74 57.37 63.3 57.34 62.88 57.26L63 58.5C63.5 58.56 64.09 58.58 64.62 58.58C65.33 58.58 65.67 58.22 65.67 57.64C65.67 56.8 65.67 53.82 65.67 53.01C65.67 52.43 65.67 51.58 65.67 50.99C65.67 50.74 65.73 50.25 65.76 50.11ZM60.86 51.71V53.03C61.14 53 61.52 52.99 61.82 52.99C62.48 52.99 67.29 52.99 68.01 52.99C68.28 52.99 68.67 53 68.98 53.03V51.72C68.71 51.75 68.28 51.78 68 51.78C67.28 51.78 62.43 51.78 61.82 51.78C61.51 51.78 61.16 51.75 60.86 51.71ZM63.41 54.42L62.27 53.88C61.86 54.73 61.06 55.83 60.39 56.47L61.48 57.2C62.02 56.61 62.95 55.3 63.41 54.42ZM67.7 53.85L66.61 54.44C67.1 55.06 67.81 56.27 68.24 57.13L69.41 56.48C69.01 55.75 68.21 54.49 67.7 53.85ZM74.48 50.17L72.94 49.87C72.92 50.18 72.84 50.56 72.73 50.89C72.61 51.27 72.42 51.8 72.15 52.26C71.77 52.89 71.13 53.79 70.41 54.32L71.67 55.08C72.33 54.49 73.01 53.53 73.41 52.74C73.67 52.23 73.98 51.49 74.15 50.99C74.24 50.77 74.37 50.43 74.48 50.17ZM72.9 51.72L72.8 52.98C73.7 52.98 77.49 52.98 78.19 52.98C78.42 52.98 78.85 52.98 79.23 53.01V51.65C78.9 51.7 78.44 51.72 78.19 51.72C77.5 51.72 73.7 51.72 72.9 51.72ZM76.81 52.44H75.42C75.38 54.85 74.49 56.23 73.35 57.1C73.12 57.3 72.77 57.5 72.41 57.65L73.76 58.55C75.69 57.34 76.74 55.39 76.81 52.44ZM85.04 52.07L83.86 52.46C84.1 52.98 84.54 54.19 84.67 54.67L85.86 54.26C85.72 53.8 85.23 52.49 85.04 52.07ZM88.73 52.79L87.33 52.34C87.22 53.6 86.73 54.93 86.05 55.77C85.23 56.81 83.83 57.57 82.74 57.87L83.79 58.94C84.96 58.49 86.2 57.66 87.13 56.45C87.81 55.58 88.24 54.54 88.5 53.53C88.56 53.33 88.62 53.12 88.73 52.79ZM82.72 52.59L81.52 53.03C81.76 53.46 82.27 54.8 82.43 55.33L83.65 54.88C83.46 54.32 82.97 53.1 82.72 52.59ZM93.13 57.05C93.13 57.44 93.1 58.05 93.03 58.44H94.6C94.55 58.03 94.51 57.33 94.51 57.05C94.51 56.31 94.5 52.4 94.5 51.3C94.5 50.88 94.55 50.45 94.59 50.09H93.03C93.1 50.45 93.13 50.94 93.13 51.3C93.13 52.14 93.13 56.28 93.13 57.05ZM94.21 52.68V54.12C95.3 54.48 96.98 55.12 98.12 55.71L98.68 54.32C97.7 53.84 95.54 53.05 94.21 52.68Z" fill="black"/>
</svg>
