<svg width="18" height="18" viewBox="0 0 18 18" fill="none" xmlns="http://www.w3.org/2000/svg">
<path fill-rule="evenodd" clip-rule="evenodd" d="M18 9C18 13.9706 13.9706 18 9 18C4.02944 18 0 13.9706 0 9C0 4.02944 4.02944 0 9 0C13.9706 0 18 4.02944 18 9ZM3.98664 4.75715H13.8847C14.3809 4.75715 14.7857 5.15466 14.7857 5.64185V12.4867C14.7857 12.9739 14.3809 13.3714 13.8847 13.3714H3.98664C3.4905 13.3714 3.08569 12.9739 3.08569 12.4867V5.64185C3.08569 5.15466 3.4905 4.75715 3.98664 4.75715ZM8.9974 9.40606L13.7539 5.41159H4.24088L8.9974 9.40606ZM13.8847 12.717C14.0131 12.717 14.1192 12.6128 14.1192 12.4867V5.96664L9.20968 10.0847C9.20845 10.0859 9.2066 10.0872 9.20475 10.0884C9.20289 10.0896 9.20104 10.0908 9.19981 10.092C9.19857 10.0932 9.19672 10.0944 9.19487 10.0956C9.19302 10.0968 9.19117 10.0981 9.18993 10.0993C9.18623 10.1017 9.18314 10.1035 9.18006 10.1053C9.17697 10.1072 9.17389 10.109 9.17019 10.1114C9.16895 10.1126 9.16772 10.1132 9.16648 10.1138C9.16525 10.1144 9.16402 10.115 9.16278 10.1162L9.13316 10.1308C9.13193 10.1308 9.13069 10.1314 9.12946 10.132C9.12823 10.1326 9.12699 10.1332 9.12576 10.1332C9.11588 10.1381 9.10848 10.1405 9.10107 10.1429C9.09984 10.1429 9.09799 10.1435 9.09614 10.1441C9.09429 10.1447 9.09243 10.1453 9.0912 10.1453C9.08379 10.1453 9.07639 10.1477 9.06898 10.1502C9.06775 10.1502 9.0659 10.1508 9.06405 10.1514C9.0622 10.152 9.06034 10.1526 9.05911 10.1526C9.05171 10.155 9.04183 10.1574 9.03443 10.1574H9.02702C9.01715 10.1599 9.00481 10.1599 8.99493 10.1599C8.99 10.1599 8.98444 10.1593 8.97889 10.1587C8.97334 10.158 8.96778 10.1574 8.96285 10.1574H8.95544C8.95174 10.1562 8.94742 10.1556 8.9431 10.155C8.93878 10.1544 8.93446 10.1538 8.93076 10.1526C8.92952 10.1526 8.92767 10.152 8.92582 10.1514C8.92397 10.1508 8.92212 10.1502 8.92088 10.1502C8.91348 10.1502 8.90607 10.1477 8.89867 10.1453C8.89743 10.1453 8.89558 10.1447 8.89373 10.1441C8.89188 10.1435 8.89003 10.1429 8.88879 10.1429C8.88292 10.1415 8.87792 10.1392 8.87327 10.137C8.87011 10.1356 8.86711 10.1342 8.86411 10.1332C8.86288 10.1332 8.86164 10.1326 8.86041 10.132C8.85917 10.1314 8.85794 10.1308 8.85671 10.1308L8.82709 10.1162C8.82585 10.115 8.82462 10.1144 8.82338 10.1138C8.82215 10.1132 8.82092 10.1126 8.81968 10.1114C8.81448 10.1097 8.8105 10.1068 8.80603 10.1035C8.80413 10.1022 8.80214 10.1007 8.79993 10.0993C8.7987 10.0981 8.79685 10.0968 8.795 10.0956C8.79315 10.0944 8.7913 10.0932 8.79006 10.092C8.78883 10.0908 8.78697 10.0896 8.78512 10.0884C8.78327 10.0872 8.78142 10.0859 8.78019 10.0847L3.75215 5.86242V12.4867C3.75215 12.6128 3.85829 12.717 3.98664 12.717H13.8847Z" fill="black"/>
</svg>
