<svg width="250" height="250" viewBox="0 0 250 250" fill="none" xmlns="http://www.w3.org/2000/svg">
<g clip-path="url(#clip0_126_7)">
<path d="M72 81C72 51.1766 96.1766 27 126 27C155.823 27 180 51.1766 180 81V256.1V289C180 318.823 155.823 343 126 343C96.1766 343 72 318.823 72 289V256.1V81Z" fill="black"/>
<rect x="80" y="130" width="92.0301" height="120" fill="#FF6245"/>
<path d="M90.5547 199.777C90.5547 210.148 82.1478 218.555 71.7773 218.555C61.4069 218.555 53 210.148 53 199.777C53 189.407 61.4069 181 71.7773 181C82.1478 181 90.5547 189.407 90.5547 199.777Z" fill="#FF8B76"/>
<path d="M198.555 199.777C198.555 210.148 190.148 218.555 179.777 218.555C169.407 218.555 161 210.148 161 199.777C161 189.407 169.407 181 179.777 181C190.148 181 198.555 189.407 198.555 199.777Z" fill="#FF8B76"/>
<circle cx="125.915" cy="84.5911" r="43.8138" fill="#FF8B76"/>
<path d="M177.81 98.2143C177.81 63.7754 155.061 35.8572 127 35.8572C98.9388 35.8572 76.1906 63.7754 76.1906 98.2143H126.274H147.324L153.131 75.9439L160.389 98.2143H177.81Z" fill="black"/>
<line x1="97.3508" y1="193.107" x2="153.508" y2="193.107" stroke="white" stroke-width="3.7438"/>
<line x1="125.429" y1="195" x2="125.429" y2="110.744" stroke="white" stroke-width="3.7438"/>
<path fill-rule="evenodd" clip-rule="evenodd" d="M32 194.979C34.9042 145.903 75.6236 107 125.429 107C175.235 107 215.954 145.903 218.858 194.979H151.033C148.462 183.204 137.975 174.388 125.429 174.388C112.883 174.388 102.396 183.204 99.8257 194.979H32Z" fill="#E94324"/>
<line x1="125.429" y1="165.029" x2="125.429" y2="114.488" stroke="#FF6245" stroke-width="3.7438"/>
<line x1="142.532" y1="170.278" x2="168.041" y2="126.646" stroke="#FF6245" stroke-width="3.7438"/>
<line x1="154.447" y1="182.343" x2="196.255" y2="153.944" stroke="#FF6245" stroke-width="3.7438"/>
<line y1="-1.8719" x2="49.9191" y2="-1.8719" transform="matrix(-0.485839 -0.874048 -0.851839 0.523803 104.838 173.094)" stroke="#FF6245" stroke-width="3.7438"/>
<line y1="-1.8719" x2="48.8522" y2="-1.8719" transform="matrix(-0.813667 -0.581331 -0.542528 0.840038 94.0466 185.763)" stroke="#FF6245" stroke-width="3.7438"/>
</g>
<defs>
<clipPath id="clip0_126_7">
<rect width="250" height="250" rx="40" fill="white"/>
</clipPath>
</defs>
</svg>
