<svg width="138" height="18" viewBox="0 0 138 18" fill="none" xmlns="http://www.w3.org/2000/svg">
<path d="M29.04 13.07C28.5733 13.07 28.1533 12.99 27.78 12.83C27.4067 12.6633 27.1133 12.43 26.9 12.13C26.6867 11.83 26.58 11.48 26.58 11.08H27.8C27.8267 11.38 27.9433 11.6267 28.15 11.82C28.3633 12.0133 28.66 12.11 29.04 12.11C29.4333 12.11 29.74 12.0167 29.96 11.83C30.18 11.6367 30.29 11.39 30.29 11.09C30.29 10.8567 30.22 10.6667 30.08 10.52C29.9467 10.3733 29.7767 10.26 29.57 10.18C29.37 10.1 29.09 10.0133 28.73 9.92C28.2767 9.8 27.9067 9.68 27.62 9.56C27.34 9.43333 27.1 9.24 26.9 8.98C26.7 8.72 26.6 8.37333 26.6 7.94C26.6 7.54 26.7 7.19 26.9 6.89C27.1 6.59 27.38 6.36 27.74 6.2C28.1 6.04 28.5167 5.96 28.99 5.96C29.6633 5.96 30.2133 6.13 30.64 6.47C31.0733 6.80333 31.3133 7.26333 31.36 7.85H30.1C30.08 7.59667 29.96 7.38 29.74 7.2C29.52 7.02 29.23 6.93 28.87 6.93C28.5433 6.93 28.2767 7.01333 28.07 7.18C27.8633 7.34667 27.76 7.58667 27.76 7.9C27.76 8.11333 27.8233 8.29 27.95 8.43C28.0833 8.56333 28.25 8.67 28.45 8.75C28.65 8.83 28.9233 8.91667 29.27 9.01C29.73 9.13667 30.1033 9.26333 30.39 9.39C30.6833 9.51667 30.93 9.71333 31.13 9.98C31.3367 10.24 31.44 10.59 31.44 11.03C31.44 11.3833 31.3433 11.7167 31.15 12.03C30.9633 12.3433 30.6867 12.5967 30.32 12.79C29.96 12.9767 29.5333 13.07 29.04 13.07ZM37.7752 7.49V13H36.6352V12.35C36.4552 12.5767 36.2185 12.7567 35.9252 12.89C35.6385 13.0167 35.3318 13.08 35.0052 13.08C34.5718 13.08 34.1818 12.99 33.8352 12.81C33.4952 12.63 33.2252 12.3633 33.0252 12.01C32.8318 11.6567 32.7352 11.23 32.7352 10.73V7.49H33.8652V10.56C33.8652 11.0533 33.9885 11.4333 34.2352 11.7C34.4818 11.96 34.8185 12.09 35.2452 12.09C35.6718 12.09 36.0085 11.96 36.2552 11.7C36.5085 11.4333 36.6352 11.0533 36.6352 10.56V7.49H37.7752ZM40.4193 8.3C40.6126 8.04667 40.876 7.83333 41.2093 7.66C41.5426 7.48667 41.9193 7.4 42.3393 7.4C42.8193 7.4 43.256 7.52 43.6493 7.76C44.0493 7.99333 44.3626 8.32333 44.5893 8.75C44.816 9.17667 44.9293 9.66667 44.9293 10.22C44.9293 10.7733 44.816 11.27 44.5893 11.71C44.3626 12.1433 44.0493 12.4833 43.6493 12.73C43.256 12.97 42.8193 13.09 42.3393 13.09C41.9193 13.09 41.546 13.0067 41.2193 12.84C40.8926 12.6667 40.626 12.4533 40.4193 12.2V15.62H39.2793V7.49H40.4193V8.3ZM43.7693 10.22C43.7693 9.84 43.6893 9.51333 43.5293 9.24C43.376 8.96 43.1693 8.75 42.9093 8.61C42.656 8.46333 42.3826 8.39 42.0893 8.39C41.8026 8.39 41.5293 8.46333 41.2693 8.61C41.016 8.75667 40.8093 8.97 40.6493 9.25C40.496 9.53 40.4193 9.86 40.4193 10.24C40.4193 10.62 40.496 10.9533 40.6493 11.24C40.8093 11.52 41.016 11.7333 41.2693 11.88C41.5293 12.0267 41.8026 12.1 42.0893 12.1C42.3826 12.1 42.656 12.0267 42.9093 11.88C43.1693 11.7267 43.376 11.5067 43.5293 11.22C43.6893 10.9333 43.7693 10.6 43.7693 10.22ZM47.1966 8.3C47.39 8.04667 47.6533 7.83333 47.9866 7.66C48.32 7.48667 48.6966 7.4 49.1166 7.4C49.5966 7.4 50.0333 7.52 50.4266 7.76C50.8266 7.99333 51.14 8.32333 51.3666 8.75C51.5933 9.17667 51.7066 9.66667 51.7066 10.22C51.7066 10.7733 51.5933 11.27 51.3666 11.71C51.14 12.1433 50.8266 12.4833 50.4266 12.73C50.0333 12.97 49.5966 13.09 49.1166 13.09C48.6966 13.09 48.3233 13.0067 47.9966 12.84C47.67 12.6667 47.4033 12.4533 47.1966 12.2V15.62H46.0566V7.49H47.1966V8.3ZM50.5466 10.22C50.5466 9.84 50.4666 9.51333 50.3066 9.24C50.1533 8.96 49.9466 8.75 49.6866 8.61C49.4333 8.46333 49.16 8.39 48.8666 8.39C48.58 8.39 48.3066 8.46333 48.0466 8.61C47.7933 8.75667 47.5866 8.97 47.4266 9.25C47.2733 9.53 47.1966 9.86 47.1966 10.24C47.1966 10.62 47.2733 10.9533 47.4266 11.24C47.5866 11.52 47.7933 11.7333 48.0466 11.88C48.3066 12.0267 48.58 12.1 48.8666 12.1C49.16 12.1 49.4333 12.0267 49.6866 11.88C49.9466 11.7267 50.1533 11.5067 50.3066 11.22C50.4666 10.9333 50.5466 10.6 50.5466 10.22ZM55.224 13.09C54.704 13.09 54.234 12.9733 53.814 12.74C53.394 12.5 53.064 12.1667 52.824 11.74C52.584 11.3067 52.464 10.8067 52.464 10.24C52.464 9.68 52.5873 9.18333 52.834 8.75C53.0807 8.31667 53.4173 7.98333 53.844 7.75C54.2707 7.51667 54.7473 7.4 55.274 7.4C55.8007 7.4 56.2773 7.51667 56.704 7.75C57.1307 7.98333 57.4673 8.31667 57.714 8.75C57.9607 9.18333 58.084 9.68 58.084 10.24C58.084 10.8 57.9573 11.2967 57.704 11.73C57.4507 12.1633 57.104 12.5 56.664 12.74C56.2307 12.9733 55.7507 13.09 55.224 13.09ZM55.224 12.1C55.5173 12.1 55.7907 12.03 56.044 11.89C56.304 11.75 56.514 11.54 56.674 11.26C56.834 10.98 56.914 10.64 56.914 10.24C56.914 9.84 56.8373 9.50333 56.684 9.23C56.5307 8.95 56.3273 8.74 56.074 8.6C55.8207 8.46 55.5473 8.39 55.254 8.39C54.9607 8.39 54.6873 8.46 54.434 8.6C54.1873 8.74 53.9907 8.95 53.844 9.23C53.6973 9.50333 53.624 9.84 53.624 10.24C53.624 10.8333 53.774 11.2933 54.074 11.62C54.3807 11.94 54.764 12.1 55.224 12.1ZM60.3509 8.29C60.5176 8.01 60.7376 7.79333 61.0109 7.64C61.2909 7.48 61.6209 7.4 62.0009 7.4V8.58H61.7109C61.2643 8.58 60.9243 8.69333 60.6909 8.92C60.4643 9.14667 60.3509 9.54 60.3509 10.1V13H59.2109V7.49H60.3509V8.29ZM64.3788 8.42V11.47C64.3788 11.6767 64.4255 11.8267 64.5188 11.92C64.6188 12.0067 64.7855 12.05 65.0188 12.05H65.7188V13H64.8188C64.3055 13 63.9122 12.88 63.6388 12.64C63.3655 12.4 63.2288 12.01 63.2288 11.47V8.42H62.5788V7.49H63.2288V6.12H64.3788V7.49H65.7188V8.42H64.3788ZM74.3572 7.49V13H73.2172V12.35C73.0372 12.5767 72.8005 12.7567 72.5072 12.89C72.2205 13.0167 71.9139 13.08 71.5872 13.08C71.1539 13.08 70.7639 12.99 70.4172 12.81C70.0772 12.63 69.8072 12.3633 69.6072 12.01C69.4139 11.6567 69.3172 11.23 69.3172 10.73V7.49H70.4472V10.56C70.4472 11.0533 70.5705 11.4333 70.8172 11.7C71.0639 11.96 71.4005 12.09 71.8272 12.09C72.2539 12.09 72.5905 11.96 72.8372 11.7C73.0905 11.4333 73.2172 11.0533 73.2172 10.56V7.49H74.3572ZM77.8613 13.09C77.428 13.09 77.038 13.0133 76.6913 12.86C76.3513 12.7 76.0813 12.4867 75.8813 12.22C75.6813 11.9467 75.5747 11.6433 75.5613 11.31H76.7413C76.7613 11.5433 76.8713 11.74 77.0713 11.9C77.278 12.0533 77.5347 12.13 77.8413 12.13C78.1613 12.13 78.408 12.07 78.5813 11.95C78.7613 11.8233 78.8513 11.6633 78.8513 11.47C78.8513 11.2633 78.7513 11.11 78.5513 11.01C78.358 10.91 78.048 10.8 77.6213 10.68C77.208 10.5667 76.8713 10.4567 76.6113 10.35C76.3513 10.2433 76.1247 10.08 75.9313 9.86C75.7447 9.64 75.6513 9.35 75.6513 8.99C75.6513 8.69667 75.738 8.43 75.9113 8.19C76.0847 7.94333 76.3313 7.75 76.6513 7.61C76.978 7.47 77.3513 7.4 77.7713 7.4C78.398 7.4 78.9013 7.56 79.2813 7.88C79.668 8.19333 79.8747 8.62333 79.9013 9.17H78.7613C78.7413 8.92333 78.6413 8.72667 78.4613 8.58C78.2813 8.43333 78.038 8.36 77.7313 8.36C77.4313 8.36 77.2013 8.41667 77.0413 8.53C76.8813 8.64333 76.8013 8.79333 76.8013 8.98C76.8013 9.12667 76.8547 9.25 76.9613 9.35C77.068 9.45 77.198 9.53 77.3513 9.59C77.5047 9.64333 77.7313 9.71333 78.0313 9.8C78.4313 9.90667 78.758 10.0167 79.0113 10.13C79.2713 10.2367 79.4947 10.3967 79.6813 10.61C79.868 10.8233 79.9647 11.1067 79.9713 11.46C79.9713 11.7733 79.8847 12.0533 79.7113 12.3C79.538 12.5467 79.2913 12.74 78.9713 12.88C78.658 13.02 78.288 13.09 77.8613 13.09ZM86.1908 13.09C85.6708 13.09 85.2008 12.9733 84.7808 12.74C84.3608 12.5 84.0308 12.1667 83.7908 11.74C83.5508 11.3067 83.4308 10.8067 83.4308 10.24C83.4308 9.68 83.5541 9.18333 83.8008 8.75C84.0474 8.31667 84.3841 7.98333 84.8108 7.75C85.2374 7.51667 85.7141 7.4 86.2408 7.4C86.7674 7.4 87.2441 7.51667 87.6708 7.75C88.0974 7.98333 88.4341 8.31667 88.6808 8.75C88.9274 9.18333 89.0508 9.68 89.0508 10.24C89.0508 10.8 88.9241 11.2967 88.6708 11.73C88.4174 12.1633 88.0708 12.5 87.6308 12.74C87.1974 12.9733 86.7174 13.09 86.1908 13.09ZM86.1908 12.1C86.4841 12.1 86.7574 12.03 87.0108 11.89C87.2708 11.75 87.4808 11.54 87.6408 11.26C87.8008 10.98 87.8808 10.64 87.8808 10.24C87.8808 9.84 87.8041 9.50333 87.6508 9.23C87.4974 8.95 87.2941 8.74 87.0408 8.6C86.7874 8.46 86.5141 8.39 86.2208 8.39C85.9274 8.39 85.6541 8.46 85.4008 8.6C85.1541 8.74 84.9574 8.95 84.8108 9.23C84.6641 9.50333 84.5908 9.84 84.5908 10.24C84.5908 10.8333 84.7408 11.2933 85.0408 11.62C85.3474 11.94 85.7308 12.1 86.1908 12.1ZM92.9577 7.4C93.3911 7.4 93.7777 7.49 94.1177 7.67C94.4644 7.85 94.7344 8.11667 94.9277 8.47C95.1211 8.82333 95.2177 9.25 95.2177 9.75V13H94.0877V9.92C94.0877 9.42667 93.9644 9.05 93.7177 8.79C93.4711 8.52333 93.1344 8.39 92.7077 8.39C92.2811 8.39 91.9411 8.52333 91.6877 8.79C91.4411 9.05 91.3177 9.42667 91.3177 9.92V13H90.1777V7.49H91.3177V8.12C91.5044 7.89333 91.7411 7.71667 92.0277 7.59C92.3211 7.46333 92.6311 7.4 92.9577 7.4ZM104.13 8.12C104.13 8.47333 104.046 8.80667 103.88 9.12C103.713 9.43333 103.446 9.69 103.08 9.89C102.713 10.0833 102.243 10.18 101.67 10.18H100.41V13H99.2695V6.05H101.67C102.203 6.05 102.653 6.14333 103.02 6.33C103.393 6.51 103.67 6.75667 103.85 7.07C104.036 7.38333 104.13 7.73333 104.13 8.12ZM101.67 9.25C102.103 9.25 102.426 9.15333 102.64 8.96C102.853 8.76 102.96 8.48 102.96 8.12C102.96 7.36 102.53 6.98 101.67 6.98H100.41V9.25H101.67ZM104.837 10.22C104.837 9.66667 104.95 9.17667 105.177 8.75C105.41 8.32333 105.723 7.99333 106.117 7.76C106.517 7.52 106.957 7.4 107.437 7.4C107.87 7.4 108.247 7.48667 108.567 7.66C108.893 7.82667 109.153 8.03667 109.347 8.29V7.49H110.497V13H109.347V12.18C109.153 12.44 108.89 12.6567 108.557 12.83C108.223 13.0033 107.843 13.09 107.417 13.09C106.943 13.09 106.51 12.97 106.117 12.73C105.723 12.4833 105.41 12.1433 105.177 11.71C104.95 11.27 104.837 10.7733 104.837 10.22ZM109.347 10.24C109.347 9.86 109.267 9.53 109.107 9.25C108.953 8.97 108.75 8.75667 108.497 8.61C108.243 8.46333 107.97 8.39 107.677 8.39C107.383 8.39 107.11 8.46333 106.857 8.61C106.603 8.75 106.397 8.96 106.237 9.24C106.083 9.51333 106.007 9.84 106.007 10.22C106.007 10.6 106.083 10.9333 106.237 11.22C106.397 11.5067 106.603 11.7267 106.857 11.88C107.117 12.0267 107.39 12.1 107.677 12.1C107.97 12.1 108.243 12.0267 108.497 11.88C108.75 11.7333 108.953 11.52 109.107 11.24C109.267 10.9533 109.347 10.62 109.347 10.24ZM113.324 8.42V11.47C113.324 11.6767 113.371 11.8267 113.464 11.92C113.564 12.0067 113.731 12.05 113.964 12.05H114.664V13H113.764C113.251 13 112.857 12.88 112.584 12.64C112.311 12.4 112.174 12.01 112.174 11.47V8.42H111.524V7.49H112.174V6.12H113.324V7.49H114.664V8.42H113.324ZM116.855 8.29C117.022 8.01 117.242 7.79333 117.515 7.64C117.795 7.48 118.125 7.4 118.505 7.4V8.58H118.215C117.768 8.58 117.428 8.69333 117.195 8.92C116.968 9.14667 116.855 9.54 116.855 10.1V13H115.715V7.49H116.855V8.29ZM124.603 10.11C124.603 10.3167 124.589 10.5033 124.563 10.67H120.353C120.386 11.11 120.549 11.4633 120.843 11.73C121.136 11.9967 121.496 12.13 121.923 12.13C122.536 12.13 122.969 11.8733 123.223 11.36H124.453C124.286 11.8667 123.983 12.2833 123.543 12.61C123.109 12.93 122.569 13.09 121.923 13.09C121.396 13.09 120.923 12.9733 120.503 12.74C120.089 12.5 119.763 12.1667 119.523 11.74C119.289 11.3067 119.173 10.8067 119.173 10.24C119.173 9.67333 119.286 9.17667 119.513 8.75C119.746 8.31667 120.069 7.98333 120.483 7.75C120.903 7.51667 121.383 7.4 121.923 7.4C122.443 7.4 122.906 7.51333 123.313 7.74C123.719 7.96667 124.036 8.28667 124.263 8.7C124.489 9.10667 124.603 9.57667 124.603 10.11ZM123.413 9.75C123.406 9.33 123.256 8.99333 122.963 8.74C122.669 8.48667 122.306 8.36 121.873 8.36C121.479 8.36 121.143 8.48667 120.863 8.74C120.583 8.98667 120.416 9.32333 120.363 9.75H123.413ZM128.115 13.09C127.595 13.09 127.125 12.9733 126.705 12.74C126.285 12.5 125.955 12.1667 125.715 11.74C125.475 11.3067 125.355 10.8067 125.355 10.24C125.355 9.68 125.478 9.18333 125.725 8.75C125.971 8.31667 126.308 7.98333 126.735 7.75C127.161 7.51667 127.638 7.4 128.165 7.4C128.691 7.4 129.168 7.51667 129.595 7.75C130.021 7.98333 130.358 8.31667 130.605 8.75C130.851 9.18333 130.975 9.68 130.975 10.24C130.975 10.8 130.848 11.2967 130.595 11.73C130.341 12.1633 129.995 12.5 129.555 12.74C129.121 12.9733 128.641 13.09 128.115 13.09ZM128.115 12.1C128.408 12.1 128.681 12.03 128.935 11.89C129.195 11.75 129.405 11.54 129.565 11.26C129.725 10.98 129.805 10.64 129.805 10.24C129.805 9.84 129.728 9.50333 129.575 9.23C129.421 8.95 129.218 8.74 128.965 8.6C128.711 8.46 128.438 8.39 128.145 8.39C127.851 8.39 127.578 8.46 127.325 8.6C127.078 8.74 126.881 8.95 126.735 9.23C126.588 9.50333 126.515 9.84 126.515 10.24C126.515 10.8333 126.665 11.2933 126.965 11.62C127.271 11.94 127.655 12.1 128.115 12.1ZM134.882 7.4C135.315 7.4 135.702 7.49 136.042 7.67C136.388 7.85 136.658 8.11667 136.852 8.47C137.045 8.82333 137.142 9.25 137.142 9.75V13H136.012V9.92C136.012 9.42667 135.888 9.05 135.642 8.79C135.395 8.52333 135.058 8.39 134.632 8.39C134.205 8.39 133.865 8.52333 133.612 8.79C133.365 9.05 133.242 9.42667 133.242 9.92V13H132.102V7.49H133.242V8.12C133.428 7.89333 133.665 7.71667 133.952 7.59C134.245 7.46333 134.555 7.4 134.882 7.4Z" fill="black"/>
<g clip-path="url(#clip0_348_9)">
<path d="M9 18C13.9706 18 18 13.9706 18 9C18 4.02944 13.9706 0 9 0C4.02944 0 0 4.02944 0 9C0 13.9706 4.02944 18 9 18Z" fill="black"/>
<path d="M10.5217 5.02173C8.87467 5.02173 7.53451 6.36188 7.53451 8.00896C7.53451 9.6504 8.87467 10.9863 10.5217 10.9863C12.1641 10.9863 13.5 9.6504 13.5 8.00896C13.5 6.36188 12.1641 5.02173 10.5217 5.02173M5.20312 12.9783H6.66211V5.02173H5.20312" fill="white"/>
</g>
<defs>
<clipPath id="clip0_348_9">
<rect width="18" height="18" fill="white"/>
</clipPath>
</defs>
</svg>
