<svg width="127" height="50" viewBox="0 0 127 50" fill="none" xmlns="http://www.w3.org/2000/svg">
<path d="M7.39775 19.7917C7.90575 18.9662 8.636 18.2995 9.5885 17.7915C10.541 17.2835 11.6311 17.0295 12.8588 17.0295C14.3193 17.0295 15.6422 17.3999 16.8275 18.1407C18.0128 18.8816 18.9442 19.9399 19.6215 21.3157C20.32 22.6916 20.6693 24.2897 20.6693 26.11C20.6693 27.9303 20.32 29.539 19.6215 30.936C18.9442 32.3118 18.0128 33.3807 16.8275 34.1427C15.6422 34.8836 14.3193 35.254 12.8588 35.254C11.6099 35.254 10.5198 35.0106 9.5885 34.5237C8.65717 34.0157 7.92692 33.349 7.39775 32.5235V35H1.9685V11.505H7.39775V19.7917ZM15.1448 26.11C15.1448 24.7553 14.7638 23.697 14.0018 22.935C13.2609 22.1518 12.3402 21.7602 11.2395 21.7602C10.16 21.7602 9.23925 22.1518 8.47725 22.935C7.73642 23.7182 7.366 24.7871 7.366 26.1417C7.366 27.4964 7.73642 28.5653 8.47725 29.3485C9.23925 30.1317 10.16 30.5232 11.2395 30.5232C12.319 30.5232 13.2398 30.1317 14.0018 29.3485C14.7638 28.5442 15.1448 27.4647 15.1448 26.11ZM31.5821 35.254C29.8464 35.254 28.2801 34.8836 26.8831 34.1427C25.5072 33.4019 24.4172 32.3436 23.6128 30.9677C22.8297 29.5919 22.4381 27.9832 22.4381 26.1417C22.4381 24.3214 22.8402 22.7233 23.6446 21.3475C24.4489 19.9505 25.5496 18.8816 26.9466 18.1407C28.3436 17.3999 29.9099 17.0295 31.6456 17.0295C33.3812 17.0295 34.9476 17.3999 36.3446 18.1407C37.7416 18.8816 38.8422 19.9505 39.6466 21.3475C40.4509 22.7233 40.8531 24.3214 40.8531 26.1417C40.8531 27.9621 40.4403 29.5707 39.6148 30.9677C38.8105 32.3436 37.6992 33.4019 36.2811 34.1427C34.8841 34.8836 33.3177 35.254 31.5821 35.254ZM31.5821 30.555C32.6192 30.555 33.4977 30.174 34.2173 29.412C34.9582 28.65 35.3286 27.5599 35.3286 26.1417C35.3286 24.7236 34.9687 23.6335 34.2491 22.8715C33.5506 22.1095 32.6827 21.7285 31.6456 21.7285C30.5872 21.7285 29.7088 22.1095 29.0103 22.8715C28.3118 23.6123 27.9626 24.7024 27.9626 26.1417C27.9626 27.5599 28.3012 28.65 28.9786 29.412C29.6771 30.174 30.5449 30.555 31.5821 30.555ZM54.5601 35L49.1626 27.5705V35H43.7334V11.505H49.1626V24.4907L54.5284 17.2835H61.2276L53.8616 26.1735L61.2911 35H54.5601ZM80.0606 25.856C80.0606 26.364 80.0289 26.8932 79.9654 27.4435H67.6781C67.7628 28.5442 68.112 29.3908 68.7259 29.9835C69.3609 30.555 70.1334 30.8407 71.0436 30.8407C72.3983 30.8407 73.3402 30.2692 73.8694 29.1262H79.6479C79.3515 30.2904 78.8118 31.3382 78.0286 32.2695C77.2666 33.2008 76.3035 33.9311 75.1394 34.4602C73.9752 34.9894 72.6734 35.254 71.2341 35.254C69.4984 35.254 67.9533 34.8836 66.5986 34.1427C65.2439 33.4019 64.1856 32.3436 63.4236 30.9677C62.6616 29.5919 62.2806 27.9832 62.2806 26.1417C62.2806 24.3002 62.651 22.6916 63.3919 21.3157C64.1539 19.9399 65.2122 18.8816 66.5669 18.1407C67.9215 17.3999 69.4773 17.0295 71.2341 17.0295C72.9486 17.0295 74.4726 17.3893 75.8061 18.109C77.1396 18.8287 78.1768 19.8552 78.9176 21.1887C79.6796 22.5222 80.0606 24.078 80.0606 25.856ZM74.5044 24.4272C74.5044 23.4959 74.1869 22.7551 73.5519 22.2047C72.9169 21.6544 72.1231 21.3792 71.1706 21.3792C70.2604 21.3792 69.4879 21.6438 68.8529 22.173C68.239 22.7022 67.858 23.4536 67.7099 24.4272H74.5044ZM92.799 30.3962V35H90.0368C88.0683 35 86.5337 34.5237 85.433 33.5712C84.3324 32.5976 83.782 31.0207 83.782 28.8405V21.792H81.623V17.2835H83.782V12.9655H89.2113V17.2835H92.7673V21.792H89.2113V28.904C89.2113 29.4332 89.3383 29.8142 89.5923 30.047C89.8463 30.2798 90.2696 30.3962 90.8623 30.3962H92.799ZM105.697 30.3962V35H102.935C100.967 35 99.4322 34.5237 98.3315 33.5712C97.2308 32.5976 96.6805 31.0207 96.6805 28.8405V21.792H94.5215V17.2835H96.6805V12.9655H102.11V17.2835H105.666V21.792H102.11V28.904C102.11 29.4332 102.237 29.8142 102.491 30.047C102.745 30.2798 103.168 30.3962 103.761 30.3962H105.697ZM116.786 35.254C115.051 35.254 113.484 34.8836 112.087 34.1427C110.711 33.4019 109.621 32.3436 108.817 30.9677C108.034 29.5919 107.642 27.9832 107.642 26.1417C107.642 24.3214 108.044 22.7233 108.849 21.3475C109.653 19.9505 110.754 18.8816 112.151 18.1407C113.548 17.3999 115.114 17.0295 116.85 17.0295C118.585 17.0295 120.152 17.3999 121.549 18.1407C122.946 18.8816 124.046 19.9505 124.851 21.3475C125.655 22.7233 126.057 24.3214 126.057 26.1417C126.057 27.9621 125.644 29.5707 124.819 30.9677C124.015 32.3436 122.903 33.4019 121.485 34.1427C120.088 34.8836 118.522 35.254 116.786 35.254ZM116.786 30.555C117.823 30.555 118.702 30.174 119.421 29.412C120.162 28.65 120.533 27.5599 120.533 26.1417C120.533 24.7236 120.173 23.6335 119.453 22.8715C118.755 22.1095 117.887 21.7285 116.85 21.7285C115.791 21.7285 114.913 22.1095 114.214 22.8715C113.516 23.6123 113.167 24.7024 113.167 26.1417C113.167 27.5599 113.505 28.65 114.183 29.412C114.881 30.174 115.749 30.555 116.786 30.555Z" fill="white"/>
<path d="M52.1093 39.8927L51.4822 40.1467C51.6965 40.4563 51.9109 40.877 52.0775 41.2024L52.7125 40.9326C52.5617 40.6389 52.3077 40.1785 52.1093 39.8927ZM53.1412 39.6626L52.5141 39.9245C52.7284 40.2182 52.9586 40.6309 53.1253 40.9643L53.7603 40.6944C53.6174 40.4166 53.3475 39.9642 53.1412 39.6626ZM50.6091 40.0436H49.4344C49.4582 40.1864 49.4979 40.5277 49.4979 40.7341C49.4979 41.2183 49.4979 42.0676 49.4979 42.3454C49.4979 42.7185 49.4979 45.2267 49.4899 45.5284C49.482 45.7347 49.4105 45.8062 49.2042 45.8062C49.0057 45.8062 48.6565 45.7824 48.3231 45.7189L48.4184 46.7031C48.8152 46.7507 49.2835 46.7666 49.7042 46.7666C50.2678 46.7666 50.5377 46.4809 50.5377 46.0205C50.5377 45.3537 50.5377 42.9884 50.5377 42.3454C50.5377 41.8851 50.5377 41.2104 50.5377 40.7421C50.5377 40.5436 50.5853 40.1547 50.6091 40.0436ZM46.7197 41.3136V42.3613C46.942 42.3375 47.2436 42.3296 47.4817 42.3296C48.0056 42.3296 51.8235 42.3296 52.395 42.3296C52.6094 42.3296 52.9189 42.3375 53.165 42.3613V41.3215C52.9507 41.3453 52.6094 41.3691 52.3871 41.3691C51.8156 41.3691 47.9659 41.3691 47.4817 41.3691C47.2357 41.3691 46.9579 41.3453 46.7197 41.3136ZM48.7438 43.4646L47.8389 43.036C47.5135 43.7107 46.8785 44.5838 46.3467 45.0918L47.2119 45.6712C47.6405 45.2029 48.3787 44.1631 48.7438 43.4646ZM52.149 43.0122L51.2838 43.4805C51.6727 43.9726 52.2363 44.9331 52.5776 45.6157L53.5063 45.0997C53.1888 44.5203 52.5538 43.5202 52.149 43.0122ZM57.5306 40.0912L56.3082 39.8531C56.2924 40.0991 56.2289 40.4007 56.1415 40.6627C56.0463 40.9643 55.8955 41.385 55.6812 41.7501C55.3795 42.2502 54.8715 42.9646 54.3 43.3852L55.3002 43.9885C55.824 43.5202 56.3638 42.7582 56.6813 42.1311C56.8877 41.7263 57.1337 41.1389 57.2687 40.7421C57.3401 40.5674 57.4433 40.2976 57.5306 40.0912ZM56.2765 41.3215L56.1971 42.3216C56.9115 42.3216 59.9198 42.3216 60.4754 42.3216C60.658 42.3216 60.9993 42.3216 61.3009 42.3454V41.2659C61.039 41.3056 60.6739 41.3215 60.4754 41.3215C59.9277 41.3215 56.9115 41.3215 56.2765 41.3215ZM59.38 41.893H58.2767C58.245 43.8059 57.5385 44.9013 56.6337 45.5919C56.4511 45.7506 56.1733 45.9094 55.8875 46.0284L56.9591 46.7428C58.491 45.7824 59.3245 44.2346 59.38 41.893ZM65.9126 41.5993L64.976 41.9089C65.1665 42.3216 65.5157 43.2821 65.6189 43.6631L66.5635 43.3376C66.4524 42.9725 66.0634 41.9327 65.9126 41.5993ZM68.8415 42.1708L67.7303 41.8136C67.643 42.8137 67.254 43.8694 66.7143 44.5362C66.0634 45.3617 64.9522 45.9649 64.087 46.2031L64.9204 47.0524C65.8491 46.6952 66.8334 46.0364 67.5715 45.0759C68.1113 44.3854 68.4526 43.5599 68.659 42.7582C68.7066 42.5994 68.7542 42.4327 68.8415 42.1708ZM64.0711 42.0121L63.1186 42.3613C63.3091 42.7026 63.7139 43.7662 63.8409 44.1869L64.8093 43.8297C64.6585 43.3852 64.2695 42.4169 64.0711 42.0121ZM72.334 45.5522C72.334 45.8617 72.3102 46.3459 72.2547 46.6555H73.5009C73.4612 46.3301 73.4294 45.7744 73.4294 45.5522C73.4294 44.9648 73.4215 41.8612 73.4215 40.9881C73.4215 40.6547 73.4612 40.3134 73.4929 40.0277H72.2547C72.3102 40.3134 72.334 40.7024 72.334 40.9881C72.334 41.6549 72.334 44.941 72.334 45.5522ZM73.1913 42.0835V43.2265C74.0565 43.5122 75.39 44.0202 76.2949 44.4886L76.7394 43.3852C75.9615 43.0042 74.247 42.3772 73.1913 42.0835Z" fill="white"/>
</svg>
